<svg xmlns="http://www.w3.org/2000/svg" width="49.604" height="40" viewBox="0 0 49.604 40">
  <path id="Path_37" data-name="Path 37" d="M198.31,463.251a295.248,295.248,0,0,1-34.273,0c0,.776,0,1.492,0,2.208a3.792,3.792,0,0,1-1.623,3.309,3.624,3.624,0,0,1-3.953.275,3.551,3.551,0,0,1-2.061-3.27c-.031-4.644-.058-9.288.01-13.931a7.323,7.323,0,0,1,3.007-5.782,1.726,1.726,0,0,0,.54-.725c1.243-3.49,2.462-6.987,3.69-10.483a7.676,7.676,0,0,1,7.544-5.347q9.966,0,19.933,0a7.674,7.674,0,0,1,7.584,5.367c1.222,3.479,2.438,6.959,3.677,10.431a1.843,1.843,0,0,0,.566.771,7.5,7.5,0,0,1,3,6.016c.034,4.532.018,9.064.006,13.6a3.807,3.807,0,0,1-7.491.955,6.4,6.4,0,0,1-.15-1.377C198.292,464.618,198.31,463.973,198.31,463.251Zm-27.172-29.907a3.75,3.75,0,0,0-3.845,2.7q-1.021,2.88-2.025,5.766c-.48,1.373.238,2.209,1.676,2.053,3.027-.328,6.054-.714,9.092-.882a91.349,91.349,0,0,1,19.352.869c1.428.225,2.173-.665,1.7-2.025q-.977-2.806-1.962-5.609a3.82,3.82,0,0,0-4.064-2.877q-4.939,0-9.878,0C177.835,433.341,174.487,433.335,171.138,433.344Zm15.585,20.895a1.9,1.9,0,1,0,0-3.794q-5.547-.008-11.095,0a1.9,1.9,0,1,0,0,3.795q2.76,0,5.519,0C183.006,454.239,184.865,454.242,186.723,454.238Zm-21.743-3.793a2.845,2.845,0,1,0,.013,5.691,2.845,2.845,0,0,0-.013-5.691Zm32.365,5.691a2.846,2.846,0,1,0-2.8-2.855A2.834,2.834,0,0,0,197.345,456.136Z" transform="translate(-156.367 -429.499)" fill="#414a53"/>
</svg>
