<svg id="fuel_icon" data-name="fuel icon" xmlns="http://www.w3.org/2000/svg" width="28.416" height="40" viewBox="0 0 28.416 40">
  <path id="Path_36" data-name="Path 36" d="M105.534,215.828c.545.519,1.028.964,1.5,1.427a118.635,118.635,0,0,1,8.2,8.614,35.2,35.2,0,0,1,5.527,8.791,19.415,19.415,0,0,1,1.523,5.6,28.613,28.613,0,0,1,.234,4.07c-.212,4.606-2.167,8.408-6.236,10.573a11.957,11.957,0,0,1-3.124.929h0a14.11,14.11,0,0,0,4.091-6.526,14.851,14.851,0,0,0,.593-5.8,16.81,16.81,0,0,0-1.6-5.689,24.825,24.825,0,0,0-5.949-7.65,3.348,3.348,0,0,0-.417-.253,21.948,21.948,0,0,1-3.024,13.919,11.326,11.326,0,0,0-1.507-3.941,17.364,17.364,0,0,0-1.43-1.79s-1.879,3.754-2.647,5.52a21.922,21.922,0,0,0-1.306,3.555,7.416,7.416,0,0,0,1.3,6.46c.485.642,1.034,1.235,1.555,1.849.082.1.172.189.259.283a10.817,10.817,0,0,1-1.217-.414,14.267,14.267,0,0,1-5.513-4.344,11.083,11.083,0,0,1-2.12-5.391,17.476,17.476,0,0,1,2.341-10.542s2.328-4.466,4.513-8.774C102.908,222.688,105.451,216.091,105.534,215.828Z" transform="translate(-94.116 -215.828)" fill="#414a53"/>
</svg>
